<svg xmlns="http://www.w3.org/2000/svg" viewBox="0 0 247.86 156.73"><defs><style>.cls-1,.cls-2{fill:#b6c54e;}.cls-2{stroke:#fff;stroke-miterlimit:10;stroke-width:2px;}.cls-3{fill:#fff;}.cls-4{fill:#8b913a;}</style></defs><g id="Layer_2" data-name="Layer 2"><g id="Capa_1" data-name="Capa 1"><rect class="cls-1" y="48.29" width="247.86" height="108.44" rx="19.59"/><circle class="cls-2" cx="123.93" cy="48.97" r="47.97"/><path class="cls-3" d="M53.81,121l3.72-8.42a1.46,1.46,0,0,1,1.38-.93h.14a1.44,1.44,0,0,1,1.36.93L64.13,121a1.08,1.08,0,0,1-1,1.6,1.19,1.19,0,0,1-1.13-.81l-.72-1.68h-4.7l-.75,1.76a1.16,1.16,0,0,1-1.09.73,1.08,1.08,0,0,1-1.08-1.1A1.18,1.18,0,0,1,53.81,121Zm6.61-3-1.48-3.52L57.46,118Z"/><path class="cls-3" d="M66.87,113a1.17,1.17,0,0,1,1.18-1.17h3.19c2.55,0,4.09,1.51,4.09,3.69v0c0,2.48-1.92,3.76-4.32,3.76H69.22v2.12a1.18,1.18,0,1,1-2.35,0Zm4.22,4.22A1.65,1.65,0,0,0,73,115.59v0c0-1-.73-1.62-1.91-1.62H69.22v3.27Z"/><path class="cls-3" d="M77.84,113A1.17,1.17,0,0,1,79,111.82h3.71a4.29,4.29,0,0,1,3.12,1.08,3.39,3.39,0,0,1,.91,2.45v0a3.26,3.26,0,0,1-2.13,3.25l1.63,2a1.35,1.35,0,0,1,.38.9,1.09,1.09,0,0,1-1.11,1.08,1.39,1.39,0,0,1-1.16-.61l-2.29-2.9H80.2v2.33a1.18,1.18,0,1,1-2.36,0Zm4.74,4c1.14,0,1.8-.61,1.8-1.51v0c0-1-.7-1.53-1.85-1.53H80.2V117Z"/><path class="cls-3" d="M89.18,117.19v0a5.69,5.69,0,0,1,11.37,0v0a5.69,5.69,0,0,1-11.37,0Zm8.91,0v0a3.25,3.25,0,0,0-3.24-3.36,3.2,3.2,0,0,0-3.21,3.33v0a3.25,3.25,0,0,0,3.24,3.36A3.2,3.2,0,0,0,98.09,117.19Z"/><path class="cls-3" d="M103.41,113a1.17,1.17,0,0,1,1.17-1.17h3.79a3.88,3.88,0,0,1,2.8.94,2.46,2.46,0,0,1,.73,1.82v0a2.49,2.49,0,0,1-1.4,2.31,2.62,2.62,0,0,1,2,2.63v0c0,2-1.59,2.93-4,2.93h-3.91a1.17,1.17,0,0,1-1.17-1.18Zm4.46,3.15c1,0,1.69-.34,1.69-1.13v0c0-.7-.55-1.1-1.54-1.1H105.7v2.26Zm.62,4.31c1,0,1.67-.37,1.67-1.16v0c0-.72-.54-1.16-1.74-1.16H105.7v2.35Z"/><path class="cls-3" d="M114.61,121l3.73-8.42a1.45,1.45,0,0,1,1.37-.93h.14a1.44,1.44,0,0,1,1.36.93l3.72,8.42a1.08,1.08,0,0,1-1,1.6,1.2,1.2,0,0,1-1.13-.81l-.72-1.68h-4.7l-.75,1.76a1.15,1.15,0,0,1-1.08.73,1.09,1.09,0,0,1-1.09-1.1A1.18,1.18,0,0,1,114.61,121Zm6.61-3-1.48-3.52L118.26,118Z"/><path class="cls-3" d="M127.67,113a1.17,1.17,0,0,1,1.18-1.17h3c3.36,0,5.69,2.3,5.69,5.31v0a5.36,5.36,0,0,1-5.69,5.35h-3a1.17,1.17,0,0,1-1.18-1.18Zm4.17,7.4a3.05,3.05,0,0,0,3.23-3.2v0a3.07,3.07,0,0,0-3.23-3.22H130v6.45Z"/><path class="cls-3" d="M139.91,117.19v0a5.69,5.69,0,0,1,11.37,0v0a5.69,5.69,0,0,1-11.37,0Zm8.91,0v0a3.25,3.25,0,0,0-3.24-3.36,3.2,3.2,0,0,0-3.21,3.33v0a3.25,3.25,0,0,0,3.24,3.36A3.19,3.19,0,0,0,148.82,117.19Z"/><path class="cls-3" d="M159.49,113a1.17,1.17,0,0,1,1.17-1.17h3.2c2.55,0,4.09,1.51,4.09,3.69v0c0,2.48-1.92,3.76-4.32,3.76h-1.79v2.12a1.18,1.18,0,1,1-2.35,0Zm4.21,4.22a1.66,1.66,0,0,0,1.87-1.62v0c0-1-.74-1.62-1.91-1.62h-1.82v3.27Z"/><path class="cls-3" d="M170,117.19v0a5.68,5.68,0,0,1,11.36,0v0a5.53,5.53,0,0,1-5.7,5.53A5.47,5.47,0,0,1,170,117.19Zm8.9,0v0a3.25,3.25,0,0,0-3.24-3.36,3.2,3.2,0,0,0-3.21,3.33v0a3.25,3.25,0,0,0,3.24,3.36A3.19,3.19,0,0,0,178.89,117.19Z"/><path class="cls-3" d="M184.21,113a1.17,1.17,0,0,1,1.18-1.17h3.71a4.29,4.29,0,0,1,3.12,1.08,3.39,3.39,0,0,1,.91,2.45v0a3.25,3.25,0,0,1-2.14,3.25l1.64,2a1.35,1.35,0,0,1,.38.9,1.1,1.1,0,0,1-1.12,1.08,1.42,1.42,0,0,1-1.16-.61l-2.29-2.9h-1.88v2.33a1.18,1.18,0,1,1-2.35,0Zm4.74,4c1.14,0,1.8-.61,1.8-1.51v0c0-1-.7-1.53-1.85-1.53h-2.34V117Z"/><path class="cls-3" d="M58.8,139.16v-8.34A1.16,1.16,0,0,1,60,129.65h5.93a1,1,0,1,1,0,2.09H61.14v2.17h4.08a1,1,0,1,1,0,2.09H61.14v2.24H66A1.07,1.07,0,0,1,67,139.3a1,1,0,0,1-1.06,1H60A1.17,1.17,0,0,1,58.8,139.16Z"/><path class="cls-3" d="M69.59,139.21a1.11,1.11,0,0,1-.44-.89,1.08,1.08,0,0,1,1.1-1.08,1.11,1.11,0,0,1,.67.21,4.49,4.49,0,0,0,2.74,1c1,0,1.54-.38,1.54-1v0c0-.59-.37-.9-2.16-1.36-2.15-.55-3.54-1.14-3.54-3.26v0c0-1.94,1.56-3.23,3.74-3.23a6.2,6.2,0,0,1,3.39.95,1.06,1.06,0,0,1,.52.93,1.09,1.09,0,0,1-1.1,1.09,1.16,1.16,0,0,1-.59-.17,4.43,4.43,0,0,0-2.25-.72c-.9,0-1.37.41-1.37.93v0c0,.7.46.93,2.3,1.41,2.17.56,3.39,1.34,3.39,3.2v0c0,2.12-1.61,3.31-3.92,3.31A6.93,6.93,0,0,1,69.59,139.21Z"/><path class="cls-3" d="M80.35,130.82a1.16,1.16,0,0,1,1.18-1.17h3.19c2.55,0,4.09,1.51,4.09,3.69v0c0,2.48-1.92,3.76-4.32,3.76H82.7v2.12a1.18,1.18,0,1,1-2.35,0ZM84.57,135a1.66,1.66,0,0,0,1.86-1.62v0c0-1.06-.73-1.62-1.91-1.62H82.7V135Z"/><path class="cls-3" d="M91.32,139.16v-8.34a1.16,1.16,0,0,1,1.18-1.17h5.92a1,1,0,1,1,0,2.09H93.66v2.17h4.08a1,1,0,1,1,0,2.09H93.66v2.24H98.5a1.06,1.06,0,0,1,1,1.06,1,1,0,0,1-1,1h-6A1.17,1.17,0,0,1,91.32,139.16Z"/><path class="cls-3" d="M101.85,135v0a5.44,5.44,0,0,1,5.58-5.53,5.65,5.65,0,0,1,3.57,1.09,1.19,1.19,0,0,1,.46.93,1.14,1.14,0,0,1-1.16,1.14,1.24,1.24,0,0,1-.71-.23,3.54,3.54,0,0,0-2.18-.76,3.17,3.17,0,0,0-3.1,3.33v0a3.18,3.18,0,0,0,3.1,3.36,3.4,3.4,0,0,0,2.32-.84,1.09,1.09,0,0,1,1.8.83,1.14,1.14,0,0,1-.39.84,5.64,5.64,0,0,1-9.29-4.16Z"/><path class="cls-3" d="M114.47,130.73a1.18,1.18,0,1,1,2.35,0v8.52a1.18,1.18,0,1,1-2.35,0Z"/><path class="cls-3" d="M119.67,138.82l3.72-8.41a1.46,1.46,0,0,1,1.38-.93h.14a1.44,1.44,0,0,1,1.36.93l3.72,8.41a1.13,1.13,0,0,1,.12.48,1.11,1.11,0,0,1-1.11,1.13,1.19,1.19,0,0,1-1.13-.81l-.72-1.68h-4.7l-.75,1.76a1.17,1.17,0,0,1-1.09.73,1.08,1.08,0,0,1-1.08-1.1A1.22,1.22,0,0,1,119.67,138.82Zm6.61-3-1.48-3.53-1.48,3.53Z"/><path class="cls-3" d="M132.73,130.73a1.18,1.18,0,1,1,2.35,0v7.47h4.36a1.07,1.07,0,0,1,0,2.14h-5.53a1.17,1.17,0,0,1-1.18-1.18Z"/><path class="cls-3" d="M143.06,130.73a1.18,1.18,0,1,1,2.35,0v8.52a1.18,1.18,0,1,1-2.35,0Z"/><path class="cls-3" d="M148.64,139.21a1.11,1.11,0,0,1-.44-.89,1.07,1.07,0,0,1,1.1-1.08,1.13,1.13,0,0,1,.67.21,4.47,4.47,0,0,0,2.73,1c1,0,1.54-.38,1.54-1v0c0-.59-.36-.9-2.15-1.36-2.15-.55-3.54-1.14-3.54-3.26v0c0-1.94,1.56-3.23,3.74-3.23a6.2,6.2,0,0,1,3.39.95,1.06,1.06,0,0,1,.52.93,1.09,1.09,0,0,1-1.1,1.09,1.23,1.23,0,0,1-.6-.17,4.43,4.43,0,0,0-2.24-.72c-.9,0-1.38.41-1.38.93v0c0,.7.46.93,2.31,1.41,2.17.56,3.39,1.34,3.39,3.2v0c0,2.12-1.62,3.31-3.92,3.31A6.93,6.93,0,0,1,148.64,139.21Z"/><path class="cls-3" d="M161.66,131.81H159.4a1.08,1.08,0,1,1,0-2.16h6.87a1.08,1.08,0,1,1,0,2.16H164v7.44a1.18,1.18,0,1,1-2.35,0Z"/><path class="cls-3" d="M168.09,138.82l3.73-8.41a1.45,1.45,0,0,1,1.37-.93h.14a1.44,1.44,0,0,1,1.36.93l3.73,8.41a1.3,1.3,0,0,1,.12.48,1.12,1.12,0,0,1-1.12,1.13,1.2,1.2,0,0,1-1.13-.81l-.71-1.68h-4.71l-.75,1.76a1.16,1.16,0,0,1-1.08.73,1.09,1.09,0,0,1-1.09-1.1A1.22,1.22,0,0,1,168.09,138.82Zm6.61-3-1.48-3.53-1.48,3.53Z"/><path class="cls-3" d="M180.87,139.21a1.12,1.12,0,0,1-.45-.89,1.12,1.12,0,0,1,1.77-.87,4.49,4.49,0,0,0,2.74,1c1,0,1.54-.38,1.54-1v0c0-.59-.37-.9-2.15-1.36-2.16-.55-3.55-1.14-3.55-3.26v0c0-1.94,1.56-3.23,3.75-3.23a6.23,6.23,0,0,1,3.39.95,1.06,1.06,0,0,1,.52.93,1.09,1.09,0,0,1-1.1,1.09,1.2,1.2,0,0,1-.6-.17,4.43,4.43,0,0,0-2.24-.72c-.91,0-1.38.41-1.38.93v0c0,.7.46.93,2.31,1.41,2.17.56,3.39,1.34,3.39,3.2v0c0,2.12-1.62,3.31-3.93,3.31A6.92,6.92,0,0,1,180.87,139.21Z"/><g id="_5E27wr" data-name="5E27wr"><path class="cls-4" d="M144.57,66.18a6.58,6.58,0,0,1-3.83-2.25,6.53,6.53,0,1,1,6.61,2.13c-.36.09-.44.23-.44.58a19.71,19.71,0,0,1-.33,4.66,13.81,13.81,0,0,1-27.29-3c0-4.14,0-8.27,0-12.4v-.52l-1.3-.22a14,14,0,0,1-4.45-1.82A46.75,46.75,0,0,1,106,47.8a2.66,2.66,0,0,1-.91-2.54.73.73,0,0,0-.2-.51,25.92,25.92,0,0,1-5-8,16.15,16.15,0,0,1-1.09-8,9.93,9.93,0,0,1,9.92-8.74,1,1,0,0,0,.76-.26,2.27,2.27,0,0,1,3.35.35,2.31,2.31,0,1,1-3.82,2.59.59.59,0,0,0-.63-.33A7.59,7.59,0,0,0,101,29.08a14.21,14.21,0,0,0,1.24,7.52,23.32,23.32,0,0,0,4.3,6.54.59.59,0,0,0,.44.15,2.72,2.72,0,0,1,2.38.75,38,38,0,0,0,7.47,5.33,7.16,7.16,0,0,0,7.43-.15,40.7,40.7,0,0,0,7.34-5.31,2.48,2.48,0,0,1,2.15-.63.64.64,0,0,0,.48-.11,21.69,21.69,0,0,0,5.29-9.42,11.39,11.39,0,0,0,.05-5.77,7.52,7.52,0,0,0-7.13-5.58.43.43,0,0,0-.47.26,2.31,2.31,0,0,1-3.32.79,2.32,2.32,0,1,1,2.92-3.59.8.8,0,0,0,.53.17A10,10,0,0,1,140,23.65a10.39,10.39,0,0,1,2.32,6.62,18,18,0,0,1-2.2,8.7,27.64,27.64,0,0,1-4,5.78.77.77,0,0,0-.19.55,2.64,2.64,0,0,1-.9,2.48A39,39,0,0,1,129.55,52q-1.92,1.21-3.92,2.3a10.47,10.47,0,0,1-3.51,1l-.5.08v.54c0,4.1-.06,8.21,0,12.31a11.47,11.47,0,0,0,22.93.18C144.58,67.67,144.57,66.94,144.57,66.18Zm-3-6.45a4.18,4.18,0,1,0,4.18-4.16A4.18,4.18,0,0,0,141.57,59.73Z"/><path class="cls-4" d="M126.36,39.74a3.7,3.7,0,0,1-.54,1.93,2.07,2.07,0,0,1-2.74.82,4.4,4.4,0,0,1-.56-.31,3.45,3.45,0,0,0-4.11,0,4.3,4.3,0,0,1-.59.34,2,2,0,0,1-2.73-.82,3.58,3.58,0,0,1-.29-3.4,2.78,2.78,0,0,1,.87-1.11,13,13,0,0,0,2.79-2.66,6.22,6.22,0,0,1,.64-.71,1.88,1.88,0,0,1,2.67,0c.38.37.68.82,1.06,1.19a18.83,18.83,0,0,0,2.13,2A3.18,3.18,0,0,1,126.36,39.74Z"/><path class="cls-4" d="M120.15,29.6a2.55,2.55,0,0,1-2.22,2.74,1.79,1.79,0,0,1-1.76-1,4.52,4.52,0,0,1,.15-4.64,1.82,1.82,0,0,1,1.13-.84,1.46,1.46,0,0,1,1.66.67A8.46,8.46,0,0,1,120.15,29.6Z"/><path class="cls-4" d="M120.54,28.06c.2-.68.35-1.38.6-2a1.79,1.79,0,0,1,1.06-1,1.49,1.49,0,0,1,1.86.49,5.31,5.31,0,0,1,1,3.88,2.4,2.4,0,0,1-.86,1.5,1.86,1.86,0,0,1-3-.46,4.48,4.48,0,0,1-.57-2.3Z"/><path class="cls-4" d="M129.81,32.41a10.71,10.71,0,0,1-.21,1.13A2,2,0,0,1,128,35.1a2.23,2.23,0,0,1-2.25-.92,3.71,3.71,0,0,1-.11-4,2.29,2.29,0,0,1,2.33-1.05,1.85,1.85,0,0,1,1.25,1A4.69,4.69,0,0,1,129.81,32.41Z"/><path class="cls-4" d="M111.12,32.77a2.6,2.6,0,0,1,1.12-2.32,1.76,1.76,0,0,1,2.29.13,4.09,4.09,0,0,1,1.44,3.6,1.86,1.86,0,0,1-1.31,1.75,2.26,2.26,0,0,1-2.44-.52A3.64,3.64,0,0,1,111.12,32.77Z"/><path class="cls-4" d="M145.74,57.59a2.14,2.14,0,0,1,2.17,2.14,2.17,2.17,0,1,1-4.33,0A2.12,2.12,0,0,1,145.74,57.59Z"/></g></g></g></svg>