<svg xmlns="http://www.w3.org/2000/svg" viewBox="0 0 247.86 156.73"><defs><style>.cls-1,.cls-2{fill:#e9b24d;}.cls-2{stroke:#fff;stroke-miterlimit:10;stroke-width:2px;}.cls-3{fill:#fff;}.cls-4{fill:#c19144;}</style></defs><g id="Layer_2" data-name="Layer 2"><g id="Capa_1" data-name="Capa 1"><rect class="cls-1" y="48.29" width="247.86" height="108.44" rx="19.59"/><circle class="cls-2" cx="123.93" cy="48.97" r="47.97"/><path class="cls-3" d="M36.24,112.9a1.18,1.18,0,0,1,2.35,0v3.15h4.34V112.9a1.18,1.18,0,0,1,2.35,0v8.52a1.18,1.18,0,1,1-2.35,0v-3.2H38.59v3.2a1.18,1.18,0,1,1-2.35,0Z"/><path class="cls-3" d="M48.62,121.33V113a1.17,1.17,0,0,1,1.18-1.17h5.92a1,1,0,1,1,0,2.09H51v2.17H55a1,1,0,1,1,0,2.09H51v2.25H55.8a1,1,0,1,1,0,2.09h-6A1.17,1.17,0,0,1,48.62,121.33Z"/><path class="cls-3" d="M59.15,117.19v0a5.43,5.43,0,0,1,5.57-5.53,5.66,5.66,0,0,1,3.58,1.09,1.19,1.19,0,0,1,.46.93,1.15,1.15,0,0,1-1.17,1.15,1.29,1.29,0,0,1-.7-.23,3.49,3.49,0,0,0-2.18-.77,3.17,3.17,0,0,0-3.1,3.33v0a3.17,3.17,0,0,0,3.1,3.36,3.4,3.4,0,0,0,2.32-.84,1.09,1.09,0,0,1,1.8.83,1.08,1.08,0,0,1-.4.84,5.63,5.63,0,0,1-9.28-4.16Z"/><path class="cls-3" d="M71.66,112.9a1.18,1.18,0,0,1,2.35,0v3.15h4.34V112.9a1.18,1.18,0,0,1,2.35,0v8.52a1.18,1.18,0,1,1-2.35,0v-3.2H74v3.2a1.18,1.18,0,1,1-2.35,0Z"/><path class="cls-3" d="M83.57,117.19v0a5.68,5.68,0,0,1,11.36,0v0a5.53,5.53,0,0,1-5.7,5.53A5.47,5.47,0,0,1,83.57,117.19Zm8.9,0v0a3.25,3.25,0,0,0-3.24-3.36,3.2,3.2,0,0,0-3.2,3.33v0a3.24,3.24,0,0,0,3.23,3.36A3.19,3.19,0,0,0,92.47,117.19Z"/><path class="cls-3" d="M102.67,117.19v0a5.43,5.43,0,0,1,5.57-5.53,5.66,5.66,0,0,1,3.58,1.09,1.18,1.18,0,0,1,.45.93,1.15,1.15,0,0,1-1.16,1.15,1.29,1.29,0,0,1-.7-.23,3.51,3.51,0,0,0-2.18-.77,3.16,3.16,0,0,0-3.1,3.33v0a3.17,3.17,0,0,0,3.1,3.36,3.4,3.4,0,0,0,2.32-.84,1.09,1.09,0,0,1,1.8.83,1.08,1.08,0,0,1-.4.84,5.63,5.63,0,0,1-9.28-4.16Z"/><path class="cls-3" d="M114.4,117.19v0a5.69,5.69,0,0,1,11.37,0v0a5.69,5.69,0,0,1-11.37,0Zm8.91,0v0a3.25,3.25,0,0,0-3.24-3.36,3.2,3.2,0,0,0-3.21,3.33v0a3.25,3.25,0,0,0,3.24,3.36A3.2,3.2,0,0,0,123.31,117.19Z"/><path class="cls-3" d="M128.63,112.93a1.17,1.17,0,0,1,1.17-1.17h.25a1.46,1.46,0,0,1,1.22.68l4.54,6v-5.51a1.16,1.16,0,0,1,2.32,0v8.5a1.17,1.17,0,0,1-1.18,1.18h-.07a1.46,1.46,0,0,1-1.23-.69l-4.7-6.17v5.73a1.16,1.16,0,0,1-2.32,0Z"/><path class="cls-3" d="M146.81,113a1.17,1.17,0,0,1,1.18-1.17h6a1.07,1.07,0,1,1,0,2.14h-4.82v2.27h4.13a1.07,1.07,0,1,1,0,2.14h-4.13v3a1.18,1.18,0,1,1-2.35,0Z"/><path class="cls-3" d="M157.6,113a1.17,1.17,0,0,1,1.18-1.17h3.71a4.25,4.25,0,0,1,3.11,1.08,3.36,3.36,0,0,1,.92,2.45v0a3.25,3.25,0,0,1-2.14,3.25l1.64,2a1.35,1.35,0,0,1,.38.9,1.1,1.1,0,0,1-1.12,1.08,1.42,1.42,0,0,1-1.16-.61l-2.29-2.9H160v2.33a1.18,1.18,0,1,1-2.35,0Zm4.74,4c1.14,0,1.8-.61,1.8-1.51v0c0-1-.71-1.53-1.85-1.53H160V117Z"/><path class="cls-3" d="M169.24,117.93v-5a1.18,1.18,0,0,1,2.36,0v5c0,1.74.87,2.64,2.3,2.64s2.31-.87,2.31-2.57v-5a1.18,1.18,0,0,1,2.35,0v4.95c0,3.24-1.82,4.83-4.69,4.83S169.24,121.07,169.24,117.93Z"/><path class="cls-3" d="M184.22,114H182a1.09,1.09,0,1,1,0-2.17h6.87a1.09,1.09,0,1,1,0,2.17h-2.26v7.43a1.18,1.18,0,1,1-2.35,0Z"/><path class="cls-3" d="M190.65,121l3.73-8.42a1.45,1.45,0,0,1,1.37-.93h.14a1.44,1.44,0,0,1,1.36.93L201,121a1.26,1.26,0,0,1,.12.47A1.11,1.11,0,0,1,200,122.6a1.2,1.2,0,0,1-1.14-.81l-.71-1.68h-4.71l-.75,1.76a1.13,1.13,0,0,1-1.08.73,1.09,1.09,0,0,1-1.09-1.1A1.34,1.34,0,0,1,190.65,121Zm6.62-3-1.49-3.52L194.3,118Z"/><path class="cls-3" d="M203.43,121.38a1.1,1.1,0,0,1-.45-.89,1.08,1.08,0,0,1,1.1-1.08,1.22,1.22,0,0,1,.68.21,4.47,4.47,0,0,0,2.73,1c1,0,1.54-.38,1.54-1v0c0-.6-.36-.9-2.15-1.36-2.15-.55-3.54-1.15-3.54-3.27v0c0-1.94,1.55-3.23,3.74-3.23a6.2,6.2,0,0,1,3.39,1,1.06,1.06,0,0,1,.52.93,1.09,1.09,0,0,1-1.1,1.09,1.13,1.13,0,0,1-.6-.17,4.43,4.43,0,0,0-2.24-.72c-.9,0-1.38.41-1.38.93v0c0,.71.46.94,2.31,1.41,2.17.56,3.39,1.34,3.39,3.21v0c0,2.12-1.62,3.31-3.93,3.31A6.92,6.92,0,0,1,203.43,121.38Z"/><path class="cls-3" d="M15.53,136.21l-3.45-4.69a1.37,1.37,0,0,1-.29-.84A1.15,1.15,0,0,1,13,129.55a1.34,1.34,0,0,1,1.16.72l2.6,3.74,2.64-3.77a1.34,1.34,0,0,1,1.13-.7,1.09,1.09,0,0,1,1.15,1.14,1.45,1.45,0,0,1-.31.83l-3.45,4.66v3.08a1.18,1.18,0,1,1-2.35,0Z"/><path class="cls-3" d="M32.21,139.57l-3.46-8.29a1.41,1.41,0,0,1-.14-.57,1.16,1.16,0,0,1,1.18-1.16,1.22,1.22,0,0,1,1.19.83l2.67,6.92,2.7-7a1.24,1.24,0,0,1,1.13-.75,1.14,1.14,0,0,1,1.17,1.13,1.33,1.33,0,0,1-.13.52L35,139.57a1.39,1.39,0,0,1-1.33.93h-.16A1.39,1.39,0,0,1,32.21,139.57Z"/><path class="cls-3" d="M41.22,139.16v-8.34a1.16,1.16,0,0,1,1.17-1.17h5.93a1,1,0,1,1,0,2.09H43.55v2.17h4.08a1,1,0,1,1,0,2.09H43.55v2.24H48.4a1.06,1.06,0,0,1,1.05,1.06,1,1,0,0,1-1.05,1h-6A1.17,1.17,0,0,1,41.22,139.16Z"/><path class="cls-3" d="M52.22,130.82a1.16,1.16,0,0,1,1.17-1.17h3.72a4.25,4.25,0,0,1,3.11,1.08,3.35,3.35,0,0,1,.92,2.44v0A3.28,3.28,0,0,1,59,136.46l1.63,2a1.39,1.39,0,0,1,.39.9,1.1,1.1,0,0,1-1.12,1.09,1.42,1.42,0,0,1-1.16-.61l-2.29-2.9H54.57v2.33a1.18,1.18,0,1,1-2.35,0Zm4.73,4c1.15,0,1.81-.61,1.81-1.51v0c0-1-.71-1.53-1.85-1.53H54.57v3.07Z"/><path class="cls-3" d="M64,130.82a1.16,1.16,0,0,1,1.18-1.17h3c3.36,0,5.68,2.3,5.68,5.31v0a5.35,5.35,0,0,1-5.68,5.35h-3A1.17,1.17,0,0,1,64,139.16Zm4.17,7.39A3,3,0,0,0,71.42,135v0a3.07,3.07,0,0,0-3.22-3.22H66.38v6.44Z"/><path class="cls-3" d="M76.58,135.75v-5a1.18,1.18,0,1,1,2.35,0v5c0,1.75.87,2.65,2.3,2.65s2.31-.87,2.31-2.57v-5a1.18,1.18,0,1,1,2.35,0v5c0,3.24-1.81,4.82-4.69,4.82S76.58,138.9,76.58,135.75Z"/><path class="cls-3" d="M89.06,130.82a1.16,1.16,0,0,1,1.18-1.17H94a4.25,4.25,0,0,1,3.11,1.08,3.35,3.35,0,0,1,.92,2.44v0a3.28,3.28,0,0,1-2.14,3.26l1.64,2a1.37,1.37,0,0,1,.38.9,1.1,1.1,0,0,1-1.12,1.09,1.42,1.42,0,0,1-1.16-.61l-2.29-2.9H91.41v2.33a1.18,1.18,0,1,1-2.35,0Zm4.74,4c1.14,0,1.8-.61,1.8-1.51v0c0-1-.71-1.53-1.85-1.53H91.41v3.07Z"/><path class="cls-3" d="M100.28,138.82l3.72-8.41a1.46,1.46,0,0,1,1.38-.93h.13a1.43,1.43,0,0,1,1.36.93l3.73,8.41a1.13,1.13,0,0,1,.12.48,1.12,1.12,0,0,1-1.11,1.13,1.19,1.19,0,0,1-1.13-.81l-.72-1.68h-4.7l-.75,1.76a1.17,1.17,0,0,1-1.09.73,1.08,1.08,0,0,1-1.08-1.1A1.22,1.22,0,0,1,100.28,138.82Zm6.61-3-1.48-3.53-1.48,3.53Z"/><path class="cls-3" d="M113.05,139.21a1.11,1.11,0,0,1-.44-.89,1.08,1.08,0,0,1,1.1-1.08,1.11,1.11,0,0,1,.67.21,4.49,4.49,0,0,0,2.73,1c1,0,1.55-.38,1.55-1v0c0-.59-.37-.9-2.16-1.36-2.15-.55-3.54-1.14-3.54-3.26v0c0-1.94,1.56-3.23,3.74-3.23a6.2,6.2,0,0,1,3.39.95,1.06,1.06,0,0,1,.52.93,1.09,1.09,0,0,1-1.1,1.09,1.16,1.16,0,0,1-.59-.17,4.46,4.46,0,0,0-2.25-.72c-.9,0-1.37.41-1.37.93v0c0,.7.45.93,2.3,1.41,2.17.56,3.39,1.34,3.39,3.2v0c0,2.12-1.62,3.31-3.92,3.31A6.93,6.93,0,0,1,113.05,139.21Z"/><path class="cls-3" d="M129.16,130.76a1.17,1.17,0,0,1,1.17-1.18h.25a1.47,1.47,0,0,1,1.22.69l4.54,6v-5.52a1.16,1.16,0,1,1,2.32,0v8.51a1.17,1.17,0,0,1-1.18,1.18h-.08a1.47,1.47,0,0,1-1.22-.69l-4.7-6.17v5.73a1.16,1.16,0,1,1-2.32,0Z"/><path class="cls-3" d="M141.4,138.82l3.72-8.41a1.46,1.46,0,0,1,1.38-.93h.14a1.42,1.42,0,0,1,1.35.93l3.73,8.41a1.13,1.13,0,0,1,.12.48,1.12,1.12,0,0,1-1.11,1.13,1.19,1.19,0,0,1-1.13-.81l-.72-1.68h-4.7l-.75,1.76a1.17,1.17,0,0,1-1.09.73,1.08,1.08,0,0,1-1.08-1.1A1.22,1.22,0,0,1,141.4,138.82Zm6.61-3-1.48-3.53-1.48,3.53Z"/><path class="cls-3" d="M155.8,131.81h-2.26a1.08,1.08,0,1,1,0-2.16h6.88a1.08,1.08,0,1,1,0,2.16h-2.26v7.44a1.18,1.18,0,0,1-2.36,0Z"/><path class="cls-3" d="M163.81,135.75v-5a1.18,1.18,0,1,1,2.35,0v5c0,1.75.88,2.65,2.31,2.65s2.31-.87,2.31-2.57v-5a1.18,1.18,0,1,1,2.35,0v5c0,3.24-1.82,4.82-4.69,4.82S163.81,138.9,163.81,135.75Z"/><path class="cls-3" d="M176.3,130.82a1.16,1.16,0,0,1,1.17-1.17h3.71a4.28,4.28,0,0,1,3.12,1.08,3.35,3.35,0,0,1,.92,2.44v0a3.28,3.28,0,0,1-2.14,3.26l1.63,2a1.39,1.39,0,0,1,.39.9,1.1,1.1,0,0,1-1.12,1.09,1.41,1.41,0,0,1-1.16-.61l-2.29-2.9h-1.88v2.33a1.18,1.18,0,1,1-2.35,0Zm4.73,4c1.15,0,1.8-.61,1.8-1.51v0c0-1-.7-1.53-1.84-1.53h-2.34v3.07Z"/><path class="cls-3" d="M187.51,138.82l3.73-8.41a1.45,1.45,0,0,1,1.38-.93h.13a1.44,1.44,0,0,1,1.36.93l3.73,8.41a1.3,1.3,0,0,1,.12.48,1.12,1.12,0,0,1-1.11,1.13,1.19,1.19,0,0,1-1.13-.81l-.72-1.68h-4.71l-.75,1.76a1.15,1.15,0,0,1-1.08.73,1.08,1.08,0,0,1-1.08-1.1A1.37,1.37,0,0,1,187.51,138.82Zm6.62-3-1.48-3.53-1.49,3.53Z"/><path class="cls-3" d="M200.58,130.73a1.18,1.18,0,1,1,2.35,0v7.47h4.35a1.07,1.07,0,0,1,0,2.14h-5.53a1.17,1.17,0,0,1-1.17-1.18Z"/><path class="cls-3" d="M210.8,139.16v-8.34a1.16,1.16,0,0,1,1.18-1.17h5.92a1,1,0,1,1,0,2.09h-4.76v2.17h4.08a1,1,0,1,1,0,2.09h-4.08v2.24H218A1.06,1.06,0,0,1,219,139.3a1,1,0,0,1-1.05,1h-6A1.17,1.17,0,0,1,210.8,139.16Z"/><path class="cls-3" d="M221.59,139.21a1.11,1.11,0,0,1-.44-.89,1.07,1.07,0,0,1,1.1-1.08,1.13,1.13,0,0,1,.67.21,4.47,4.47,0,0,0,2.73,1c1,0,1.54-.38,1.54-1v0c0-.59-.36-.9-2.15-1.36-2.15-.55-3.54-1.14-3.54-3.26v0c0-1.94,1.56-3.23,3.74-3.23a6.2,6.2,0,0,1,3.39.95,1.06,1.06,0,0,1,.52.93,1.09,1.09,0,0,1-1.1,1.09,1.23,1.23,0,0,1-.6-.17,4.43,4.43,0,0,0-2.24-.72c-.9,0-1.38.41-1.38.93v0c0,.7.46.93,2.31,1.41,2.17.56,3.39,1.34,3.39,3.2v0c0,2.12-1.62,3.31-3.92,3.31A6.93,6.93,0,0,1,221.59,139.21Z"/><g id="KEH6Uu"><path class="cls-4" d="M121.42,11.29a34.55,34.55,0,0,0-1.33,12.45c.26,0,.48,0,.68,0a19.47,19.47,0,0,1,20.14,9.54,25.06,25.06,0,0,1,3.72,13.28,110.66,110.66,0,0,0,2,23.46c.05.25.11.5.17.76.88,3.77-.34,6.46-3.78,8.31a14.15,14.15,0,0,1-10.19,1.34,36,36,0,0,1-23.59-17,33.23,33.23,0,0,1-4.64-22.66c1.21-7.76,5.49-13.28,12.94-16.13.62-.24.68-.56.68-1.15,0-3.65,0-7.3.15-11,0-1.46.64-1.81,2.09-1.49C120.77,11.07,121,11.17,121.42,11.29Zm16.91,35.48c.39-9.9-5-16.64-10.89-18.63C133.07,33.31,136,39.85,138.33,46.77Z"/><path class="cls-4" d="M116.71,20.56a4.24,4.24,0,0,1-.16.43c-3,4.52-6.93,7.91-12.38,9.23a12.14,12.14,0,0,0-6.69,4.58,21.63,21.63,0,0,0-4.11,8.87c-2.1-6.41,1-15.39,6.71-19.78s12.67-6.52,15.62-4.58c-6.86,1.39-13,4-17,10.1C103.75,24.5,109.55,21.24,116.71,20.56Z"/></g></g></g></svg>