<svg xmlns="http://www.w3.org/2000/svg" viewBox="0 0 247.86 156.73"><defs><style>.cls-1,.cls-2{fill:#a72a4d;}.cls-2{stroke:#fff;stroke-miterlimit:10;stroke-width:2px;}.cls-3{fill:#fff;}.cls-4{fill:#842341;}</style></defs><g id="Layer_2" data-name="Layer 2"><g id="Capa_1" data-name="Capa 1"><rect class="cls-1" y="48.29" width="247.86" height="108.44" rx="19.59"/><circle class="cls-2" cx="123.93" cy="48.97" r="47.97"/><path class="cls-3" d="M49.89,113a1.17,1.17,0,0,1,1.17-1.17h3.2c2.55,0,4.09,1.51,4.09,3.69v0c0,2.48-1.92,3.76-4.32,3.76H52.24v2.12a1.18,1.18,0,1,1-2.35,0Zm4.21,4.22A1.66,1.66,0,0,0,56,115.59v0c0-1-.74-1.62-1.91-1.62H52.24v3.27Z"/><path class="cls-3" d="M59.5,121l3.73-8.42a1.45,1.45,0,0,1,1.37-.93h.14a1.44,1.44,0,0,1,1.36.93L69.83,121a1.26,1.26,0,0,1,.12.47,1.11,1.11,0,0,1-1.12,1.13,1.2,1.2,0,0,1-1.13-.81L67,120.11H62.28l-.75,1.76a1.14,1.14,0,0,1-1.08.73,1.09,1.09,0,0,1-1.09-1.1A1.18,1.18,0,0,1,59.5,121Zm6.61-3-1.48-3.52L63.15,118Z"/><path class="cls-3" d="M72.57,112.9a1.18,1.18,0,0,1,2.35,0v7.47h4.35a1.07,1.07,0,1,1,0,2.14H73.74a1.17,1.17,0,0,1-1.17-1.18Z"/><path class="cls-3" d="M82.89,112.9a1.18,1.18,0,0,1,2.36,0v8.52a1.18,1.18,0,1,1-2.36,0Z"/><path class="cls-3" d="M91.18,114H88.92a1.09,1.09,0,1,1,0-2.17h6.87a1.09,1.09,0,0,1,0,2.17H93.53v7.43a1.18,1.18,0,1,1-2.35,0Z"/><path class="cls-3" d="M98.42,117.19v0a5.53,5.53,0,0,1,5.7-5.53,5.47,5.47,0,0,1,5.66,5.5v0a5.68,5.68,0,0,1-11.36,0Zm8.9,0v0a3.25,3.25,0,0,0-3.23-3.36,3.2,3.2,0,0,0-3.21,3.33v0a3.24,3.24,0,0,0,3.24,3.36A3.19,3.19,0,0,0,107.32,117.19Z"/><path class="cls-3" d="M118,113a1.17,1.17,0,0,1,1.18-1.17h6a1.07,1.07,0,0,1,0,2.14h-4.81v2.27h4.12a1.07,1.07,0,1,1,0,2.14h-4.12v3a1.18,1.18,0,1,1-2.36,0Z"/><path class="cls-3" d="M128.78,112.9a1.18,1.18,0,0,1,2.35,0v7.47h4.36a1.07,1.07,0,1,1,0,2.14H130a1.17,1.17,0,0,1-1.18-1.18Z"/><path class="cls-3" d="M139,121.33V113a1.16,1.16,0,0,1,1.17-1.17h5.93a1,1,0,1,1,0,2.09h-4.77v2.17h4.08a1,1,0,1,1,0,2.09h-4.08v2.25h4.84a1,1,0,1,1,0,2.09h-6A1.16,1.16,0,0,1,139,121.33Z"/><path class="cls-3" d="M149.78,120.62l2.88-3.55L150,113.76a1.42,1.42,0,0,1-.36-.87,1.13,1.13,0,0,1,1.17-1.16,1.21,1.21,0,0,1,1.08.58l2.34,3.11,2.32-3a1.34,1.34,0,0,1,1.14-.64,1.07,1.07,0,0,1,1.07,1.08,1.38,1.38,0,0,1-.35.9L155.64,117l2.87,3.53a1.4,1.4,0,0,1,.36.87,1.13,1.13,0,0,1-1.16,1.16,1.24,1.24,0,0,1-1.09-.58l-2.5-3.28L151.64,122a1.35,1.35,0,0,1-1.14.64,1.07,1.07,0,0,1-1.07-1.08A1.38,1.38,0,0,1,149.78,120.62Z"/><path class="cls-3" d="M161.73,112.9a1.18,1.18,0,0,1,2.35,0v8.52a1.18,1.18,0,1,1-2.35,0Z"/><path class="cls-3" d="M167.52,113a1.17,1.17,0,0,1,1.17-1.17h3.79a3.88,3.88,0,0,1,2.8.94,2.46,2.46,0,0,1,.73,1.82v0a2.49,2.49,0,0,1-1.4,2.31,2.62,2.62,0,0,1,2,2.63v0c0,2-1.59,2.93-4,2.93h-3.91a1.17,1.17,0,0,1-1.17-1.18Zm4.46,3.15c1,0,1.69-.34,1.69-1.13v0c0-.7-.55-1.1-1.54-1.1h-2.32v2.26Zm.62,4.31c1,0,1.67-.37,1.67-1.16v0c0-.72-.53-1.16-1.74-1.16h-2.72v2.35Z"/><path class="cls-3" d="M179.32,112.9a1.18,1.18,0,0,1,2.35,0v7.47H186a1.07,1.07,0,1,1,0,2.14h-5.53a1.17,1.17,0,0,1-1.17-1.18Z"/><path class="cls-3" d="M189.54,121.33V113a1.17,1.17,0,0,1,1.17-1.17h5.93a1,1,0,1,1,0,2.09h-4.77v2.17H196a1,1,0,1,1,0,2.09h-4.08v2.25h4.85a1,1,0,1,1,0,2.09h-6A1.17,1.17,0,0,1,189.54,121.33Z"/><path class="cls-3" d="M39.25,135v0a5.43,5.43,0,0,1,5.57-5.53,5.63,5.63,0,0,1,3.57,1.09,1.16,1.16,0,0,1,.46.93,1.14,1.14,0,0,1-1.16,1.14,1.21,1.21,0,0,1-.7-.23,3.59,3.59,0,0,0-2.19-.76A3.17,3.17,0,0,0,41.7,135v0a3.18,3.18,0,0,0,3.1,3.36,3.43,3.43,0,0,0,2.33-.84,1.09,1.09,0,0,1,.7-.26,1.09,1.09,0,0,1,.7,1.93A5.63,5.63,0,0,1,39.25,135Z"/><path class="cls-3" d="M51,135v0a5.53,5.53,0,0,1,5.7-5.53,5.47,5.47,0,0,1,5.66,5.5v0A5.68,5.68,0,0,1,51,135Zm8.9,0v0a3.25,3.25,0,0,0-3.23-3.36A3.2,3.2,0,0,0,53.44,135v0a3.25,3.25,0,0,0,3.24,3.36A3.2,3.2,0,0,0,59.88,135Z"/><path class="cls-3" d="M65.21,130.76a1.17,1.17,0,0,1,1.17-1.18h.25a1.47,1.47,0,0,1,1.22.69l4.54,6v-5.52a1.16,1.16,0,1,1,2.32,0v8.51a1.17,1.17,0,0,1-1.18,1.18h-.07a1.47,1.47,0,0,1-1.23-.69l-4.7-6.17v5.73a1.16,1.16,0,1,1-2.32,0Z"/><path class="cls-3" d="M83.39,130.82a1.16,1.16,0,0,1,1.18-1.17h6a1.07,1.07,0,1,1,0,2.13H85.74v2.28h4.13a1.07,1.07,0,0,1,0,2.14H85.74v3.05a1.18,1.18,0,1,1-2.35,0Z"/><path class="cls-3" d="M92.59,138.82l3.73-8.41a1.45,1.45,0,0,1,1.37-.93h.14a1.44,1.44,0,0,1,1.36.93l3.73,8.41a1.3,1.3,0,0,1,.12.48,1.12,1.12,0,0,1-1.12,1.13,1.2,1.2,0,0,1-1.13-.81l-.72-1.68h-4.7l-.75,1.76a1.16,1.16,0,0,1-1.08.73,1.09,1.09,0,0,1-1.09-1.1A1.22,1.22,0,0,1,92.59,138.82Zm6.61-3-1.48-3.53-1.48,3.53Zm-2.1-7.51a.86.86,0,0,1,.15-.42l.84-1.31a1,1,0,0,1,.87-.52c.56,0,1.3.35,1.3.7a.75.75,0,0,1-.31.55l-.94.89a1.72,1.72,0,0,1-1.33.5C97.34,128.74,97.1,128.59,97.1,128.35Z"/><path class="cls-3" d="M104.8,135v0a5.43,5.43,0,0,1,5.57-5.53,5.66,5.66,0,0,1,3.58,1.09,1.19,1.19,0,0,1,.46.93,1.14,1.14,0,0,1-1.16,1.14,1.22,1.22,0,0,1-.71-.23,3.54,3.54,0,0,0-2.18-.76,3.17,3.17,0,0,0-3.1,3.33v0a3.18,3.18,0,0,0,3.1,3.36,3.4,3.4,0,0,0,2.32-.84,1.09,1.09,0,0,1,1.8.83,1.14,1.14,0,0,1-.39.84A5.64,5.64,0,0,1,104.8,135Z"/><path class="cls-3" d="M117.42,130.73a1.18,1.18,0,1,1,2.35,0v8.52a1.18,1.18,0,1,1-2.35,0Z"/><path class="cls-3" d="M123.21,130.73a1.18,1.18,0,1,1,2.35,0v7.47h4.36a1.07,1.07,0,0,1,0,2.14h-5.53a1.17,1.17,0,0,1-1.18-1.18Z"/><path class="cls-3" d="M138.19,138.82l3.72-8.41a1.46,1.46,0,0,1,1.38-.93h.14a1.44,1.44,0,0,1,1.36.93l3.72,8.41a1.13,1.13,0,0,1,.12.48,1.11,1.11,0,0,1-1.11,1.13,1.19,1.19,0,0,1-1.13-.81l-.72-1.68H141l-.75,1.76a1.17,1.17,0,0,1-1.09.73,1.08,1.08,0,0,1-1.08-1.1A1.22,1.22,0,0,1,138.19,138.82Zm6.61-3-1.48-3.53-1.48,3.53Z"/><path class="cls-3" d="M150.4,135v0a5.48,5.48,0,0,1,5.6-5.53,5.93,5.93,0,0,1,3.65,1,1.18,1.18,0,0,1,.49.95,1.16,1.16,0,0,1-1.16,1.16,1.1,1.1,0,0,1-.72-.25,3.79,3.79,0,0,0-2.33-.73,3.2,3.2,0,0,0-3.07,3.33v0a3.2,3.2,0,0,0,3.23,3.39,3.75,3.75,0,0,0,2.22-.64v-1.53h-1.59a1,1,0,0,1-1-1,1,1,0,0,1,1-1h2.69a1.17,1.17,0,0,1,1.17,1.18V138a1.59,1.59,0,0,1-.82,1.5,7.06,7.06,0,0,1-3.74,1.07A5.35,5.35,0,0,1,150.4,135Z"/><path class="cls-3" d="M163,138.82l3.72-8.41a1.46,1.46,0,0,1,1.38-.93h.14a1.44,1.44,0,0,1,1.36.93l3.72,8.41a1.13,1.13,0,0,1,.12.48,1.11,1.11,0,0,1-1.11,1.13,1.19,1.19,0,0,1-1.13-.81l-.72-1.68h-4.7l-.75,1.76a1.17,1.17,0,0,1-1.09.73,1.08,1.08,0,0,1-1.08-1.1A1.22,1.22,0,0,1,163,138.82Zm6.61-3-1.48-3.53-1.48,3.53Z"/><path class="cls-3" d="M176.08,130.82a1.16,1.16,0,0,1,1.18-1.17H181a4.29,4.29,0,0,1,3.12,1.08,3.39,3.39,0,0,1,.91,2.44v0a3.28,3.28,0,0,1-2.14,3.26l1.64,2a1.37,1.37,0,0,1,.38.9,1.1,1.1,0,0,1-1.11,1.09,1.43,1.43,0,0,1-1.17-.61l-2.29-2.9h-1.88v2.33a1.18,1.18,0,1,1-2.35,0Zm4.74,4c1.14,0,1.8-.61,1.8-1.51v0c0-1-.7-1.53-1.85-1.53h-2.34v3.07Z"/><path class="cls-3" d="M187.89,130.82a1.16,1.16,0,0,1,1.18-1.17h3.71a4.28,4.28,0,0,1,3.12,1.08,3.39,3.39,0,0,1,.91,2.44v0a3.28,3.28,0,0,1-2.13,3.26l1.63,2a1.37,1.37,0,0,1,.38.9,1.1,1.1,0,0,1-1.11,1.09,1.39,1.39,0,0,1-1.16-.61l-2.29-2.9h-1.88v2.33a1.18,1.18,0,0,1-2.36,0Zm4.74,4c1.14,0,1.8-.61,1.8-1.51v0c0-1-.7-1.53-1.85-1.53h-2.33v3.07Z"/><path class="cls-3" d="M199.71,139.16v-8.34a1.16,1.16,0,0,1,1.17-1.17h5.93a1,1,0,1,1,0,2.09H202v2.17h4.08a1,1,0,1,1,0,2.09H202v2.24h4.84a1.07,1.07,0,0,1,1.06,1.06,1,1,0,0,1-1.06,1h-6A1.17,1.17,0,0,1,199.71,139.16Z"/><rect class="cls-4" x="117.01" y="11.8" width="12.75" height="74.35" rx="6.37" transform="translate(41.02 -55.13) rotate(30)"/></g></g></svg>